# xmcd CD database file
#
# Track frame offsets:
#	150
#	18870
#	38200
#	58467
#	78365
#	96342
#	115322
#	134952
#	157132
#	175950
#	203512
#	220007
#	239000
#	258732
#	276557
#	297115
#	325772
#
# Disc length: 4795 seconds
#
# Revision: 1
# Processed by: cddbd v1.5.1PL2 Copyright (c) Steve Scherf et al.
# Submitted via: CDex 1.40Beta9
#
DISCID=0e12b911
DTITLE=brownsuger - SOUL ESSENTIALS 4
DYEAR=2002
DGENRE=Punk Rock
TTITLE0=Oliver Cheatham - Never Too Much
TTITLE1=Ultimate - Cassanova
TTITLE2=Beverlei Brown with Dennis Taylor - Could Be You
TTITLE3=Daisy Hicks - Back On My Feet
TTITLE4=Miss Cherokee - Ready For Your Love
TTITLE5=Elisha La'Verne - Skin
TTITLE6=Tasha's World - Down and Around
TTITLE7=N-Trigue - Got 2 Go
TTITLE8=Jai - Cheching Me Out
TTITLE9=Leah McCrae - Can I Get Busy One Time
TTITLE10=Remi - There's A Party
TTITLE11=Neresa Maye - Step'n Up feat. Chris Smoove
TTITLE12=Shadazz - Will You Be There
TTITLE13=Carl Henry - Being With You
TTITLE14=Ola Onadule - Closer
TTITLE15=Kloud 9 feat Lncognito - Promise
TTITLE16=Special Track
EXTD=YEAR: 2002 ID3G: 121
EXTT0=
EXTT1=
EXTT2=
EXTT3=
EXTT4=
EXTT5=
EXTT6=
EXTT7=
EXTT8=
EXTT9=
EXTT10=
EXTT11=
EXTT12=
EXTT13=
EXTT14=
EXTT15=
EXTT16=
PLAYORDER=
